<svg width="64" height="64" viewBox="0 0 64 64" fill="none" xmlns="http://www.w3.org/2000/svg">
<rect width="64" height="64" rx="16" fill="#C4D520"/>
<g clip-path="url(#clip0_18_4660)">
<path d="M44 20H20C18.9391 20 17.9217 20.4214 17.1716 21.1716C16.4214 21.9217 16 22.9391 16 24V26.6667H48V24C48 22.9391 47.5786 21.9217 46.8284 21.1716C46.0783 20.4214 45.0609 20 44 20Z" fill="#11171F"/>
<path d="M16 44.0002H48V29.3335H16V44.0002ZM25.3333 36.6668C25.3333 37.0624 25.216 37.4491 24.9963 37.778C24.7765 38.1069 24.4642 38.3632 24.0987 38.5146C23.7332 38.666 23.3311 38.7056 22.9432 38.6284C22.5552 38.5512 22.1988 38.3607 21.9191 38.081C21.6394 37.8013 21.4489 37.445 21.3718 37.057C21.2946 36.669 21.3342 36.2669 21.4856 35.9015C21.6369 35.536 21.8933 35.2237 22.2222 35.0039C22.5511 34.7841 22.9378 34.6668 23.3333 34.6668C23.8638 34.6668 24.3725 34.8775 24.7475 35.2526C25.1226 35.6277 25.3333 36.1364 25.3333 36.6668Z" fill="#11171F"/>
</g>
<defs>
<clipPath id="clip0_18_4660">
<rect width="32" height="32" fill="white" transform="translate(16 16)"/>
</clipPath>
</defs>
</svg>
